<!-- Codor brand mark. Single source of truth: fill follows #fafaf9, so it is
     correct in light and dark wherever it is inlined or used as a CSS mask.
     The viewBox is normalised to a tight square around the artwork's ink rather
     than the exporter's 1024 canvas: the original padding left the glyph covering
     only 59% x 51.5%, so a 30px box drew a ~17.7px glyph - under the 24px floor
     this mark needs. It now covers ~92.6%.

     Rasters and the baked favicon are generated from this file by
     scripts/build-icons.mjs - never hand-edit the generated output. -->
<svg xmlns="http://www.w3.org/2000/svg"
	 viewBox="173.69 172.25 652.58 652.58">
<path fill="#fafaf9"
	d="
M737.993469,323.010803
	C726.552551,303.466248 710.133484,293.068542 687.513794,293.075500
	C585.189636,293.107025 482.863434,293.463074 380.542603,292.881714
	C351.187408,292.714935 321.880188,316.269318 322.209229,351.601532
	C322.362671,368.074982 323.442657,384.618225 321.369354,401.037079
	C317.688141,430.189301 304.101379,453.533905 279.680481,470.240021
	C273.778198,474.277771 273.807922,474.527344 279.857971,478.450500
	C304.304199,494.302521 318.635742,516.827209 321.316406,545.731201
	C323.979828,574.449585 321.865540,603.340332 322.271362,632.152100
	C322.404877,641.630249 322.190613,651.028076 325.049042,660.320984
	C332.392303,684.194214 356.826813,704.565552 384.173187,704.262573
	C453.824799,703.490845 523.490662,703.999878 593.150818,704.015625
	C594.976013,704.016052 596.811646,704.153625 598.624573,704.373962
	C604.940796,705.141724 609.429443,708.321960 611.822205,714.356201
	C614.327209,720.673706 612.748779,726.509644 608.518616,731.074158
	C600.484070,739.743896 591.965515,747.982849 583.378967,756.116760
	C578.406616,760.827026 571.895752,762.066772 565.269775,762.071289
	C503.275452,762.113525 441.277863,762.471680 379.287811,761.952576
	C331.888245,761.555603 289.585052,730.506042 272.718903,685.310303
	C267.470062,671.245117 264.930389,656.749939 264.906372,641.789429
	C264.864349,615.625305 264.553680,589.455688 264.976044,563.298340
	C265.459015,533.390259 238.564438,513.208435 215.566147,513.189392
	C202.319519,513.178406 197.917633,508.567200 197.906662,495.402130
	C197.894989,481.403656 197.863693,467.405151 197.863770,453.406677
	C197.863800,445.463562 201.516220,440.583374 209.244492,438.554932
	C214.550049,437.162415 219.967041,436.197693 225.282913,434.840668
	C246.838394,429.338013 265.604492,407.806824 265.012909,383.383545
	C264.582275,365.606354 263.788544,347.752563 266.675323,330.008362
	C274.216827,283.652954 314.143036,243.874527 360.532715,236.672714
	C368.451752,235.443314 376.379181,234.851837 384.394714,234.855438
	C484.719055,234.900604 585.043396,234.891953 685.367737,234.885269
	C711.915894,234.883499 736.080383,242.399338 756.961792,258.857239
	C785.559387,281.396698 801.589844,311.083984 801.785339,347.602142
	C802.316040,446.757050 802.058289,545.916870 801.911133,645.074463
	C801.830627,699.303284 761.487976,749.043335 709.352722,759.689331
	C695.706299,762.475891 681.854309,762.276184 668.032837,762.007935
	C662.660889,761.903748 658.289185,759.574097 656.434875,754.114624
	C654.417053,748.173462 656.433411,743.225586 660.976074,739.347412
	C672.633301,729.395508 684.402832,719.574951 696.142700,709.720032
	C705.075195,702.221558 714.038391,694.759705 722.974915,687.266052
	C737.781860,674.849426 744.938843,659.278870 744.879456,639.648865
	C744.588989,543.658447 744.704773,447.666626 744.789368,351.675415
	C744.798218,341.627014 742.989746,332.171082 737.993469,323.010803
z"/>
<path fill="#fafaf9"
	d="
M469.130981,487.133484
	C475.886688,480.565186 476.440887,481.869171 469.153839,474.986938
	C447.603607,454.634033 425.923859,434.418182 404.380920,414.057617
	C397.380554,407.441406 395.000336,399.184601 397.529480,389.897705
	C400.172150,380.193878 407.125793,374.887146 416.768585,373.262573
	C424.337738,371.987366 430.950928,374.819397 436.464325,379.813965
	C463.243958,404.073730 489.918518,428.449493 516.634888,452.779144
	C519.713013,455.582214 522.874329,458.295929 525.904175,461.149628
	C538.178345,472.710266 538.297668,489.400208 525.885742,500.744476
	C496.021240,528.039917 466.057526,555.227173 436.050812,582.366272
	C426.499878,591.004517 411.295746,590.469788 403.022980,581.509216
	C394.096649,571.840759 394.347534,557.631226 404.122772,548.325012
	C425.590576,527.887268 447.276764,507.679016 469.130981,487.133484
z"/>
<path fill="#fafaf9"
	d="
M608.000000,588.865479
	C627.323792,588.866577 646.148254,588.777710 664.971191,588.908997
	C674.022400,588.972107 681.230469,592.746460 685.084961,601.202515
	C688.777161,609.302490 687.747192,617.191528 682.172852,624.198303
	C677.963318,629.489441 672.112915,631.892090 665.491028,631.899719
	C620.180847,631.952087 574.869202,632.072205 529.560730,631.773560
	C512.657349,631.662109 502.804718,616.944519 508.768738,601.842163
	C511.958710,593.764343 520.017822,588.902771 530.538574,588.886414
	C556.192322,588.846619 581.846191,588.868774 608.000000,588.865479
z"/>
</svg>
